PathFileType	4	(X/Y/Z)	/Users/visionmauri/4_3_2_f_1_Sports2D/4_3_2_f_1_Sports2D_px_person00.trc
DataRate	CameraRate	NumFrames	NumMarkers	Units	OrigDataRate	OrigDataStartFrame	OrigNumFrames
30.0	30.0	8	22	m	30.0	315	360
Frame#	Time	Hip			RHip			RKnee			RAnkle			RBigToe			RSmallToe			RHeel			LHip			LKnee			LAnkle			LBigToe			LSmallToe			LHeel			Neck			Head			Nose			RShoulder			RElbow			RWrist			LShoulder			LElbow			LWrist			
		X1	Y1	Z1	X2	Y2	Z2	X3	Y3	Z3	X4	Y4	Z4	X5	Y5	Z5	X6	Y6	Z6	X7	Y7	Z7	X8	Y8	Z8	X9	Y9	Z9	X10	Y10	Z10	X11	Y11	Z11	X12	Y12	Z12	X13	Y13	Z13	X14	Y14	Z14	X15	Y15	Z15	X16	Y16	Z16	X17	Y17	Z17	X18	Y18	Z18	X19	Y19	Z19	X20	Y20	Z20	X21	Y21	Z21	X22	Y22	Z22
315	10.52924791086351	544.9988486113291	887.2862627941661	0.0	469.8098323961255	905.1997770448146	0.0	450.788098806006	1184.5764091777821	0.0	439.2246657487198	1469.4808489129962	0.0	423.45694925889967	1596.6443799677863	0.0	379.5335386440157	1580.8992487418373	0.0	466.236556766696	1516.4245874599374	0.0	628.1273205384654	902.6985245303921	0.0	644.7082705560332	1186.9272661148357	0.0	638.8071045305956	1430.61417950912	0.0	686.8779980082475	1540.5120179447968	0.0	719.9207927181545	1520.6970346899645	0.0	614.5870537702245	1472.6516580071093	0.0	512.0859703688507	474.58948120143174	0.0	483.2681070000129	314.4821002084798	0.0	458.3625998878084	447.44078168120535	0.0	385.2424748108531	527.8913489140532	0.0	327.8533445821418	710.2556088801285	0.0	279.84122562281624	867.0267733582152	0.0	653.9056415456445	507.53978559206735	0.0	751.8379176501358	696.0587727966491	0.0	822.9143093152999	855.5392606900747	0.0
316	10.562674094707521	542.5568139180191	889.0966956250219	0.0	466.79215070902023	904.8568555503032	0.0	446.97494167073074	1187.902334023802	0.0	438.92573574747763	1469.7186020345778	0.0	422.49095899938055	1594.9787145095474	0.0	379.5170928851891	1579.923005378257	0.0	465.23450561064107	1516.526201640182	0.0	626.8609977296838	902.3761895980113	0.0	645.6691094041314	1187.200484862519	0.0	638.8168295781869	1431.4708715644554	0.0	688.6618547623812	1541.2343870846207	0.0	721.23141502489	1520.7021810959243	0.0	613.5819430501051	1472.3413869192048	0.0	508.61136320478	475.16420950970604	0.0	477.4398476610212	317.18058442607133	0.0	453.59041215285447	451.9513222510268	0.0	380.13405747477077	529.4472666799336	0.0	325.32610948664404	709.5928100532175	0.0	280.13766960953285	866.6042732552638	0.0	649.9603506117069	507.68646427981975	0.0	749.9987999106182	696.3105987500455	0.0	822.0658623063374	855.7497337903186	0.0
317	10.596100278551532	541.6409970556605	888.5966611004372	0.0	464.8762762975258	903.3391265697514	0.0	446.2972650113628	1188.3513671090536	0.0	438.4066617599771	1469.5700233386378	0.0	424.3730017973256	1594.2767161724591	0.0	380.51336556297196	1579.9057766022943	0.0	464.03910003643284	1516.3325125712702	0.0	626.169180189348	901.3226470567242	0.0	647.3469199104748	1186.423353185619	0.0	638.6821231806606	1431.486428725752	0.0	690.6983795164815	1541.686336474239	0.0	721.6931962500789	1520.557834157857	0.0	613.2541095987286	1472.7882463433127	0.0	504.725873064204	474.9685953730345	0.0	472.0490220717638	321.0249096290398	0.0	450.83544061711643	456.3298715583397	0.0	375.6228142620446	531.5312815902739	0.0	323.99127555609107	709.5835599688427	0.0	281.36179136970406	866.7643642386976	0.0	647.2348488243028	508.608392991802	0.0	748.6174876169122	697.6356660272302	0.0	821.9706202497728	855.5791477601605	0.0
318	10.629526462395544	541.690204730034	885.4434190428472	0.0	463.5904364015622	902.3097604486416	0.0	447.65735221114795	1185.97710717163	0.0	438.24709714207233	1469.3478566609922	0.0	426.6464846436681	1594.893635232169	0.0	381.61948916846677	1580.4035832403015	0.0	463.4461697607796	1515.3851395696386	0.0	625.0421226929982	900.2342340461684	0.0	650.247601627615	1186.3485395074772	0.0	638.6620833722809	1429.301295625922	0.0	690.8936612462338	1541.3336293836119	0.0	720.9961706076131	1520.3894908700472	0.0	614.086704895503	1470.8206681792062	0.0	501.91569706894956	474.4495307694716	0.0	466.6448047100507	324.631473789799	0.0	448.8684521524181	457.9342824664341	0.0	372.98900842973563	532.1649097105949	0.0	323.65087940310025	709.8665571171196	0.0	282.42458293661093	866.7754033631819	0.0	646.2345987778634	510.9596297554818	0.0	747.6121739822364	699.6422197292526	0.0	822.2983737725364	855.6341677013595	0.0
319	10.662952646239555	541.9334252101823	881.6599719129861	0.0	462.5499836246803	903.3727581928423	0.0	448.1935594508137	1183.4300732391566	0.0	438.58207068147317	1468.7777136027048	0.0	426.38092649547843	1595.5143446839215	0.0	381.95464308886733	1580.4992338419577	0.0	463.9078644131151	1513.1989227672673	0.0	623.9855693418424	900.5174106042905	0.0	653.9827460880641	1188.0625530639727	0.0	638.3412402149881	1425.9435759704797	0.0	688.8661243095416	1539.8137909611125	0.0	719.8238788780501	1519.9988722127614	0.0	614.5284800553699	1465.1539200361196	0.0	500.8258170931745	474.22116616972164	0.0	461.58404575603834	325.9996388450503	0.0	446.90084231863125	455.94753096598987	0.0	372.53802577493934	531.0124852176432	0.0	323.7689006759292	709.7579288069633	0.0	282.72329879063386	866.4209612585004	0.0	645.5411452366385	511.9287900159178	0.0	746.6106485594295	701.0333038308759	0.0	822.1258770494227	856.0704660979933	0.0
320	10.696378830083566	542.1483622297233	880.9193481415026	0.0	462.3920713490007	906.0333802818478	0.0	447.8080661824114	1182.426695524681	0.0	438.818911200466	1468.1553533195627	0.0	424.3170993710681	1595.8830371381998	0.0	381.5757372780167	1580.601941179134	0.0	464.6711662455224	1510.0450248983975	0.0	624.3111014991956	902.3496362294565	0.0	657.0553082836067	1190.106235010779	0.0	636.6192656616761	1423.7698069095584	0.0	687.5186122243852	1538.28122638072	0.0	718.6825337847755	1519.1515473136442	0.0	612.676500661614	1460.0623009900314	0.0	499.6199728598226	474.57980654504274	0.0	458.5231202505806	325.294838651214	0.0	445.0521191813916	454.5991870929326	0.0	372.8369276243529	530.7251030548041	0.0	323.47859838271916	710.2107483401105	0.0	282.6463758244936	866.2403425836136	0.0	644.6531781118218	510.6079014551608	0.0	744.6155351592815	701.4228224211159	0.0	821.6397848443772	856.1022956265182	0.0
321	10.729805013927578	542.3567185974915	884.0841567168968	0.0	463.2883681878962	908.7690337152197	0.0	448.11051345396726	1182.1657322602805	0.0	438.85665705152326	1468.198733719132	0.0	423.52821329850667	1596.6658049760906	0.0	381.25865370363823	1581.0881608873246	0.0	464.86265696053067	1508.1481276456873	0.0	625.2704107771048	904.7497840674814	0.0	658.8543412893944	1190.8873213012478	0.0	633.5769767862575	1423.8047355430306	0.0	688.503880889186	1538.6259928882594	0.0	717.39352155097	1518.483371211973	0.0	608.6678880290642	1459.323407690959	0.0	497.30621655642045	475.5044060611404	0.0	458.68624240865563	324.92738168616097	0.0	444.6159063444059	458.8502782455685	0.0	372.2795672173125	533.3134984930642	0.0	322.9558894808941	712.4277335798961	0.0	282.6347347536114	866.6656858819983	0.0	644.3852584348558	510.0917719361685	0.0	742.1998194309025	701.5450382375276	0.0	821.2656215588178	855.5561258425997	0.0
322	10.763231197771589	542.7851069563083	887.6480129441235	0.0	464.860715962623	910.5467941208309	0.0	449.1195800859695	1181.3079052799703	0.0	438.9056253140464	1468.7698991896057	0.0	425.04657887240876	1597.9447582376702	0.0	381.5604604722768	1581.493449748862	0.0	465.35203840905695	1510.1952895415036	0.0	625.2052896867311	906.461767725086	0.0	660.0326565683887	1190.6136918497305	0.0	631.108570566079	1425.556133695473	0.0	689.0303434624375	1541.1627062624075	0.0	715.786764089678	1519.2577254665373	0.0	604.679405629511	1461.6550175118887	0.0	495.8358148995356	476.88858173656587	0.0	460.61209367436766	326.28249670844997	0.0	444.90686900718964	466.2811712033195	0.0	371.2127437898216	536.6064028821897	0.0	323.3328938771834	715.2549713677117	0.0	282.50480012637445	867.6415449270465	0.0	644.30114540193	511.41409542328205	0.0	741.474087904141	701.811741898236	0.0	821.0168686699639	855.1843627151529	0.0
